# xmcd
#
# Track frame offsets:
#	150
#	21864
#	53879
#	69666
#	88640
#	109489
#	123703
#	141890
#	162590
#	180852
#	207890
#	232732
#	250879
#	275779
#	294342
#
# Disc length: 4305
#
# Revision: 1
# Processed by: cddbd v1.5.1PL0 Copyright (c) Steve Scherf et al.
# Submitted via: CDex 1.51
# Normalized: r0:TDELIM( - )
#
DISCID=de10cf0f
DTITLE=Blues Paradise Good Whiskey Blues vol.12 - A Collection Of Blues Songs From The World
DYEAR=1999
DGENRE=Blues
TTITLE0=The Reputations - Time And Time Again
TTITLE1=Chris Cain - Trouble Markin' Woman
TTITLE2=Blues Etilicos - It Ain't Easy
TTITLE3=Mason Casey - Liven' In A Dream
TTITLE4=Sven Zetterberg And The Chicago Express - Will Be Me Of Him
TTITLE5=Nino Mindelis - Never Off With The Blue
TTITLE6=Working Blues Band - Who's Been Talking
TTITLE7=Sugar Cane Train - I Can Breathe Again
TTITLE8=John Campbell Trio - No Philosopher
TTITLE9=Stan Webb - The House That Love Lives In
TTITLE10=Snowy White - Land Of Plenty
TTITLE11=tracy Nelson - Words Unspoken
TTITLE12=Leadfoot Rivet and Tommy Castro - Sweet Bedtime Music
TTITLE13=Roy Buchanan - Me Messiah Will Come Again
TTITLE14=Mem Shannon - Charity
EXTD=YEAR: 1999
EXTT0=
EXTT1=
EXTT2=
EXTT3=
EXTT4=
EXTT5=
EXTT6=
EXTT7=
EXTT8=
EXTT9=
EXTT10=
EXTT11=
EXTT12=
EXTT13=
EXTT14=
PLAYORDER=
